inDegrees=yes
name=ik_S52_A08_T02
DataType=double
version=3
OpenSimVersion=4.3-2021-08-27-4bc7ad9
endheader
time	pelvis_tilt	pelvis_list	pelvis_rotation	pelvis_tx	pelvis_ty	pelvis_tz	hip_flexion_r	hip_adduction_r	hip_rotation_r	knee_angle_r	knee_angle_r_beta	ankle_angle_r	subtalar_angle_r	mtp_angle_r	hip_flexion_l	hip_adduction_l	hip_rotation_l	knee_angle_l	knee_angle_l_beta	ankle_angle_l	subtalar_angle_l	mtp_angle_l	lumbar_extension	lumbar_bending	lumbar_rotation	arm_flex_r	arm_add_r	arm_rot_r	elbow_flex_r	pro_sup_r	wrist_flex_r	wrist_dev_r	arm_flex_l	arm_add_l	arm_rot_l	elbow_flex_l	pro_sup_l	wrist_flex_l	wrist_dev_l
24.29999999999957	-3.615830799608214	0.2345633240109941	14.86494346400042	0	0.9399999999999999	0	43.13970702731551	-10.01099148716683	-10.05393859586072	55.78500203243066	0.9736319586976436	0	0	0	43.13970702731551	-10.01099148716683	-10.05393859586072	55.78500203243066	0.9736319586976436	0	0	0	-2.176481137569362	-1.755441747843161	8.034006684401778	32.2315843583506	-10.49845581388526	-10.60453919674258	31.59714908351866	143.6112213639006	0	0	65.26798600962822	-11.11982213807677	-4.145156228208736	45.42670343432341	87.7140428152745	0	0
24.31999999999957	-3.616388626500128	0.2229343909875725	14.74954285388726	0	0.9399999999999999	0	43.14036352621876	-10.01097806425345	-10.05389621645988	55.78481519125892	0.9736286977040185	0	0	0	43.14036352621876	-10.01097806425345	-10.05389621645988	55.78481519125892	0.9736286977040185	0	0	0	-2.181320806974679	-1.769676835497635	8.127875077315958	32.23676914898353	-10.45641858837876	-10.64774271512477	31.60291182841102	143.6343500755298	0	0	65.5817244424032	-10.95003151277848	-3.667726617805937	43.75696338767364	88.26081273728671	0	0
24.33999999999957	-3.608582571538473	0.2280576002170149	14.63759350639006	0	0.9399999999999999	0	43.14097386348612	-10.01096563933708	-10.05385692516253	55.78464088765325	0.9736256555322015	0	0	0	43.14097386348612	-10.01096563933708	-10.05385692516253	55.78464088765325	0.9736256555322015	0	0	0	-2.173489891364887	-1.770724864754475	8.242754656226916	32.2281491853804	-10.46669634257091	-10.6489159127354	31.58445575962704	143.6153500273106	0	0	65.87495350155037	-10.65782939757907	-3.335182975924534	42.23835277694779	88.79640438859177	0	0
24.35999999999957	-3.607908924435032	0.2376097212651841	14.43467187023548	0	0.9399999999999999	0	43.14179021768439	-10.01094945784307	-10.05380527514046	55.78440225262569	0.9736214905652598	0	0	0	43.14179021768439	-10.01094945784307	-10.05380527514046	55.78440225262569	0.9736214905652598	0	0	0	-2.171698908063088	-1.767927671704551	8.438026346401751	32.22958357648513	-10.48771282245832	-10.63839934431328	31.61933745332514	143.6425200654894	0	0	66.23362479033293	-10.32978107847225	-3.422532436001841	40.57594872177359	89.5321698919076	0	0
24.37999999999957	-3.6310075456293	0.2334576694585565	14.37324062964083	0	0.9399999999999999	0	43.14243331836395	-10.0109364460999	-10.05376403231106	55.78421776145083	0.9736182705868177	0	0	0	43.14243331836395	-10.0109364460999	-10.05376403231106	55.78421776145083	0.9736182705868177	0	0	0	-2.195493354356947	-1.76436433277827	8.419762316288022	32.23981501075426	-10.45917399000856	-10.63855467087335	31.62496754978042	143.6973952750022	0	0	66.2627187327905	-10.38582545368389	-3.525982640848738	39.42761907156117	89.66398091540506	0	0
24.39999999999957	-3.658653211303205	0.2278097234472297	14.1816523968894	0	0.9399999999999999	0	43.14310926229211	-10.01092356343844	-10.05372234594234	55.78401338617653	0.9736147035653714	0	0	0	43.14310926229211	-10.01092356343844	-10.05372234594234	55.78401338617653	0.9736147035653714	0	0	0	-2.224244708263783	-1.769897485611377	8.596743990543816	32.30093892033089	-10.45337328105139	-10.59975450059281	31.63934806801562	143.6441463717311	0	0	66.69743774560439	-10.19547406242621	-3.516759132080421	37.96511193902768	90.01932996899237	0	0
24.41999999999957	-3.679449000274603	0.2251164729049593	14.20827206165361	0	0.9399999999999999	0	43.1436206321149	-10.01091323930262	-10.0536895858531	55.78386666320957	0.9736121427665096	0	0	0	43.1436206321149	-10.01091323930262	-10.0536895858531	55.78386666320957	0.9736121427665096	0	0	0	-2.245240511278931	-1.765274546003373	8.554660747886258	32.31567315689711	-10.46183523283794	-10.54767966905391	31.6555860181168	143.6207997197939	0	0	66.71929975169584	-10.21252241290608	-3.598294857844459	37.16254018936809	90.26415958521756	0	0
24.43999999999957	-3.697079625726414	0.2113261809583706	14.12257829303715	0	0.9399999999999999	0	43.14429717947734	-10.01089963658191	-10.05364635792796	55.78367188990038	0.9736087433309693	0	0	0	43.14429717947734	-10.01089963658191	-10.05364635792796	55.78367188990038	0.9736087433309693	0	0	0	-2.266392884711387	-1.778206277635284	8.67616376748976	32.34682434678965	-10.4673082221831	-10.60432240772014	31.67654662273743	143.6598109429669	0	0	67.19360854148657	-9.82433685451867	-3.679767001051364	35.78791870414761	90.69061015141678	0	0
24.45999999999957	-3.686987963175196	0.2213893311250817	14.15487066223765	0	0.9399999999999999	0	43.14491960490931	-10.01088705975375	-10.05360645482101	55.78349357938603	0.9736056312254031	0	0	0	43.14491960490931	-10.01088705975375	-10.05360645482101	55.78349357938603	0.9736056312254031	0	0	0	-2.254027560735279	-1.767484403221476	8.604456643696938	32.31053633755447	-10.45078408018996	-10.57611027833301	31.67554117262826	143.6888675006272	0	0	67.39057886603838	-9.775488656684018	-4.09834478048421	34.72275037234049	91.04859210454214	0	0
24.47999999999957	-3.71404181056222	0.1939977571987205	14.16646109878586	0	0.9399999999999999	0	43.14563161980453	-10.01087261956426	-10.0535606913067	55.78329042579176	0.9736020855262958	0	0	0	43.14563161980453	-10.01087261956426	-10.0535606913067	55.78329042579176	0.9736020855262958	0	0	0	-2.287116124695982	-1.786316552029279	8.594491543365704	32.38778215565171	-10.42653145451703	-10.59431080295947	31.67380706957552	143.6275891993005	0	0	67.95371288677613	-9.648625815710801	-4.310092817813979	33.79722271949021	91.32607441859962	0	0
24.49999999999957	-3.725181617931483	0.1982201243939562	14.10071392002681	0	0.9399999999999999	0	43.1461419430824	-10.01086242504595	-10.05352820909443	55.78314293925717	0.9735995114006649	0	0	0	43.1461419430824	-10.01086242504595	-10.05352820909443	55.78314293925717	0.9735995114006649	0	0	0	-2.297277432684537	-1.781486200145988	8.658763933084741	32.39212398234484	-10.45064387511191	-10.59235635277862	31.6560838670278	143.6267789681548	0	0	68.11158455977335	-9.496552173257614	-4.289242643321311	33.02909210570616	91.2355588208206	0	0
24.51999999999957	-3.734301348907807	0.174043712720601	14.03965380556981	0	0.9399999999999999	0	43.14673789485956	-10.01085035962108	-10.05348993776757	55.7829728772431	0.9735965432585867	0	0	0	43.14673789485956	-10.01085035962108	-10.05348993776757	55.7829728772431	0.9735965432585867	0	0	0	-2.312543190827911	-1.803982913294635	8.706019172357221	32.43174479688854	-10.4099391629977	-10.6027578698411	31.65990497383017	143.6581079937811	0	0	68.29221290117587	-9.358698467671521	-4.140918008572197	32.30367775349727	91.29977057327822	0	0
24.53999999999957	-3.719964952766194	0.1779259166164404	13.98187223945333	0	0.9399999999999999	0	43.14727919332222	-10.01083960939515	-10.05345561173693	55.78281570738363	0.9735938001270541	0	0	0	43.14727919332222	-10.01083960939515	-10.05345561173693	55.78281570738363	0.9735938001270541	0	0	0	-2.298046615636622	-1.804806229020672	8.754331491552181	32.39095706986555	-10.39354776625144	-10.58405283856946	31.64702593454587	143.6579739565399	0	0	68.34862002691702	-9.270769128689352	-4.009273452176327	31.19998488386389	91.53134792078511	0	0
24.55999999999957	-3.71703735441227	0.1888001094345475	13.94936733834021	0	0.9399999999999999	0	43.14739949120963	-10.01083722051313	-10.05344798287553	55.78278079222278	0.9735931907425384	0	0	0	43.14739949120963	-10.01083722051313	-10.05344798287553	55.78278079222278	0.9735931907425384	0	0	0	-2.292658674689672	-1.795053855623205	8.759779499288774	32.39506389092027	-10.4018917886972	-10.52032820382314	31.65124702545497	143.6546707790887	0	0	68.37435052160811	-9.198063857969078	-3.907396389683954	31.18414577063132	91.54067951161757	0	0
24.57999999999956	-3.728395801256088	0.1743423770036521	13.90357564956178	0	0.9399999999999999	0	43.14791927358114	-10.01082672857934	-10.05341465903568	55.78263227053733	0.9735905985501168	0	0	0	43.14791927358114	-10.01082672857934	-10.05341465903568	55.78263227053733	0.9735905985501168	0	0	0	-2.307637381919939	-1.807822984380816	8.807028406868586	32.41951144667829	-10.40698500781156	-10.55496353117784	31.6292770214745	143.6123654236318	0	0	68.43861852646842	-9.073489729222993	-3.781053274335364	30.36362872560688	91.48483910838746	0	0
24.59999999999956	-3.768677530056354	0.1532784969707197	13.87468991795047	0	0.9399999999999999	0	43.14828240104453	-10.01081935723498	-10.05339129037835	55.78252908036132	0.9735887975417896	0	0	0	43.14828240104453	-10.01081935723498	-10.05339129037835	55.78252908036132	0.9735887975417896	0	0	0	-2.352024901754366	-1.818719143340568	8.820669353077175	32.5102041994078	-10.39423830905471	-10.55763759814012	31.65887536213222	143.6320277282175	0	0	68.53870062836249	-8.983212894559252	-3.730056946039333	30.41669759321343	91.28977595027109	0	0
24.61999999999956	-3.775972977452704	0.1170468507680276	13.80413719623229	0	0.9399999999999999	0	43.14879862369067	-10.01080932791485	-10.0533590167244	55.78237637417891	0.9735861323161183	0	0	0	43.14879862369067	-10.01080932791485	-10.0533590167244	55.78237637417891	0.9735861323161183	0	0	0	-2.367705007612747	-1.852702749408887	8.84867522254107	32.54261246102307	-10.31167928344248	-10.56972743886667	31.65608239354847	143.6298366856008	0	0	68.58605527349664	-9.02102941399075	-3.712874281057397	30.44877411272204	92.33193687510085	0	0
24.63999999999956	-3.777366042982918	0.1262922516908167	13.83340884651427	0	0.9399999999999999	0	43.14936717382175	-10.01079777230606	-10.05332239128189	55.78221515434578	0.9735833184992109	0	0	0	43.14936717382175	-10.01079777230606	-10.05332239128189	55.78221515434578	0.9735833184992109	0	0	0	-2.3670404721511	-1.841570589929329	8.81677925246351	32.52888582868991	-10.34713106475336	-10.53694090652755	31.66426106635371	143.6571919032833	0	0	68.6974849674877	-9.091260697917141	-3.934470244995667	30.21883166430287	92.63092912636645	0	0
